# Blender 4.5.3 LTS
# www.blender.org
o Cylinder.001
v -0.000000 0.176906 -1.053948
v 0.000000 0.030000 -0.725635
v -0.017321 0.190000 -1.041948
v 0.017321 0.190000 -1.041948
v -0.012247 0.185524 -1.050433
v 0.005853 0.029424 -0.725635
v 0.000000 0.190893 -1.048876
v 0.011481 0.027716 -0.725635
v 0.000000 0.194783 -1.041948
v 0.012247 0.185524 -1.050433
v 0.016667 0.024944 -0.725635
v 0.000000 0.176906 -0.813948
v 0.017321 0.190000 -0.825948
v 0.021213 0.021213 -0.725635
v -0.017321 0.190000 -0.825948
v 0.012247 0.185524 -0.817463
v 0.024944 0.016667 -0.725635
v 0.000000 0.190893 -0.819020
v 0.000000 0.194783 -0.825948
v -0.012247 0.185524 -0.817463
v 0.027716 0.011481 -0.725635
v 0.153205 0.088453 -1.053948
v 0.029424 0.005853 -0.725635
v 0.155885 0.110000 -1.041948
v 0.173205 0.080000 -1.041948
v 0.030000 0.000000 -0.725635
v 0.154545 0.103369 -1.050433
v 0.165318 0.095447 -1.048876
v 0.029424 -0.005853 -0.725635
v 0.168687 0.097391 -1.041948
v 0.166792 0.082155 -1.050433
v 0.027716 -0.011481 -0.725635
v 0.153205 0.088453 -0.813948
v 0.173205 0.080000 -0.825948
v 0.155885 0.110000 -0.825948
v 0.024944 -0.016667 -0.725635
v 0.166792 0.082155 -0.817463
v 0.021213 -0.021213 -0.725635
v 0.165318 0.095447 -0.819020
v 0.168687 0.097391 -0.825948
v 0.016667 -0.024944 -0.725635
v 0.154545 0.103369 -0.817463
v 0.153205 -0.088453 -1.053948
v 0.011481 -0.027716 -0.725635
v 0.173205 -0.080000 -1.041948
v 0.155885 -0.110000 -1.041948
v 0.005853 -0.029424 -0.725635
v 0.166792 -0.082155 -1.050433
v 0.165318 -0.095447 -1.048876
v 0.000000 -0.030000 -0.725635
v 0.168687 -0.097391 -1.041948
v 0.154545 -0.103369 -1.050433
v -0.005853 -0.029424 -0.725635
v 0.153205 -0.088453 -0.813948
v 0.155885 -0.110000 -0.825948
v 0.173205 -0.080000 -0.825948
v -0.011481 -0.027716 -0.725635
v 0.154545 -0.103369 -0.817463
v 0.165318 -0.095447 -0.819020
v -0.016667 -0.024944 -0.725635
v 0.168687 -0.097391 -0.825948
v 0.166792 -0.082155 -0.817463
v -0.021213 -0.021213 -0.725635
v 0.000000 -0.176906 -1.053948
v 0.017321 -0.190000 -1.041948
v -0.024944 -0.016667 -0.725635
v -0.017321 -0.190000 -1.041948
v -0.027716 -0.011481 -0.725635
v 0.012247 -0.185524 -1.050433
v 0.000000 -0.190893 -1.048876
v 0.000000 -0.194783 -1.041948
v -0.029424 -0.005853 -0.725635
v -0.012247 -0.185524 -1.050433
v -0.000000 -0.176906 -0.813948
v -0.030000 0.000000 -0.725635
v -0.017321 -0.190000 -0.825948
v 0.017321 -0.190000 -0.825948
v -0.029424 0.005853 -0.725635
v -0.012247 -0.185524 -0.817463
v -0.027716 0.011481 -0.725635
v 0.000000 -0.190893 -0.819020
v 0.000000 -0.194783 -0.825948
v 0.012247 -0.185524 -0.817463
v -0.024944 0.016667 -0.725635
v -0.153205 -0.088453 -1.053948
v -0.155885 -0.110000 -1.041948
v -0.021213 0.021213 -0.725635
v -0.173205 -0.080000 -1.041948
v -0.016667 0.024944 -0.725635
v -0.154545 -0.103369 -1.050433
v -0.165318 -0.095447 -1.048876
v -0.011481 0.027716 -0.725635
v -0.168687 -0.097391 -1.041948
v -0.166792 -0.082155 -1.050433
v -0.153205 -0.088453 -0.813948
v -0.005853 0.029424 -0.725635
v -0.173205 -0.080000 -0.825948
v -0.155885 -0.110000 -0.825948
v -0.166792 -0.082155 -0.817463
v -0.165318 -0.095447 -0.819020
v -0.168687 -0.097391 -0.825948
v -0.154545 -0.103369 -0.817463
v -0.153205 0.088453 -1.053948
v -0.173205 0.080000 -1.041948
v -0.155885 0.110000 -1.041948
v -0.166792 0.082155 -1.050433
v -0.165318 0.095447 -1.048876
v -0.168687 0.097391 -1.041948
v -0.154545 0.103369 -1.050433
v -0.153205 0.088453 -0.813948
v -0.155885 0.110000 -0.825948
v -0.173205 0.080000 -0.825948
v -0.154545 0.103369 -0.817463
v -0.165318 0.095447 -0.819020
v -0.168687 0.097391 -0.825948
v -0.166792 0.082155 -0.817463
v 0.000000 0.030000 -0.813948
v 0.005853 0.029424 -0.813948
v 0.011481 0.027716 -0.813948
v 0.016667 0.024944 -0.813948
v 0.021213 0.021213 -0.813948
v 0.024944 0.016667 -0.813948
v 0.027716 0.011481 -0.813948
v 0.029424 0.005853 -0.813948
v 0.030000 0.000000 -0.813948
v 0.029424 -0.005853 -0.813948
v 0.027716 -0.011481 -0.813948
v 0.024944 -0.016667 -0.813948
v 0.021213 -0.021213 -0.813948
v 0.016667 -0.024944 -0.813948
v 0.011481 -0.027716 -0.813948
v 0.005853 -0.029424 -0.813948
v 0.000000 -0.030000 -0.813948
v -0.005853 -0.029424 -0.813948
v -0.011481 -0.027716 -0.813948
v -0.016667 -0.024944 -0.813948
v -0.021213 -0.021213 -0.813948
v -0.024944 -0.016667 -0.813948
v -0.027716 -0.011481 -0.813948
v -0.029424 -0.005853 -0.813948
v -0.030000 0.000000 -0.813948
v -0.029424 0.005853 -0.813948
v -0.027716 0.011481 -0.813948
v -0.024944 0.016667 -0.813948
v -0.021213 0.021213 -0.813948
v -0.016667 0.024944 -0.813948
v -0.011481 0.027716 -0.813948
v -0.005853 0.029424 -0.813948
vn 0.0980 0.9952 -0.0000
vn 0.2903 0.9569 -0.0000
vn 0.4714 0.8819 -0.0000
vn 0.6344 0.7730 -0.0000
vn 0.7730 0.6344 -0.0000
vn 0.8819 0.4714 -0.0000
vn 0.9569 0.2903 -0.0000
vn 0.9952 0.0980 -0.0000
vn 0.9952 -0.0980 -0.0000
vn 0.9569 -0.2903 -0.0000
vn 0.8819 -0.4714 -0.0000
vn 0.7730 -0.6344 -0.0000
vn 0.6344 -0.7730 -0.0000
vn 0.4714 -0.8819 -0.0000
vn 0.2903 -0.9569 -0.0000
vn 0.0980 -0.9952 -0.0000
vn -0.0980 -0.9952 -0.0000
vn -0.2903 -0.9569 -0.0000
vn -0.4714 -0.8819 -0.0000
vn -0.6344 -0.7730 -0.0000
vn -0.7730 -0.6344 -0.0000
vn -0.8819 -0.4714 -0.0000
vn -0.9569 -0.2903 -0.0000
vn -0.9952 -0.0980 -0.0000
vn -0.9952 0.0980 -0.0000
vn -0.9569 0.2903 -0.0000
vn -0.8819 0.4714 -0.0000
vn -0.7730 0.6344 -0.0000
vn -0.6344 0.7730 -0.0000
vn -0.4714 0.8819 -0.0000
vn -0.0000 -0.0000 1.0000
vn -0.2903 0.9569 -0.0000
vn -0.0980 0.9952 -0.0000
vn 0.0299 0.3407 -0.9397
vn -0.2214 0.8017 -0.5552
vn 0.2214 0.8017 -0.5552
vn -0.0299 0.3407 0.9397
vn 0.2214 0.8017 0.5552
vn -0.2214 0.8017 0.5552
vn 0.3100 0.1445 -0.9397
vn 0.5836 0.5926 -0.5552
vn 0.8050 0.2091 -0.5552
vn 0.2801 0.1963 0.9397
vn 0.8050 0.2091 0.5552
vn 0.5836 0.5926 0.5552
vn 0.2801 -0.1963 -0.9397
vn 0.8050 -0.2091 -0.5552
vn 0.5836 -0.5926 -0.5552
vn 0.3100 -0.1445 0.9397
vn 0.5836 -0.5926 0.5552
vn 0.8050 -0.2091 0.5552
vn -0.0299 -0.3407 -0.9397
vn 0.2214 -0.8017 -0.5552
vn -0.2214 -0.8017 -0.5552
vn 0.0299 -0.3407 0.9397
vn -0.2214 -0.8017 0.5552
vn 0.2214 -0.8017 0.5552
vn -0.3100 -0.1445 -0.9397
vn -0.5836 -0.5926 -0.5552
vn -0.8050 -0.2091 -0.5552
vn -0.2801 -0.1963 0.9397
vn -0.8050 -0.2091 0.5552
vn -0.5836 -0.5926 0.5552
vn -0.2801 0.1963 -0.9397
vn -0.8050 0.2091 -0.5552
vn -0.5836 0.5926 -0.5552
vn -0.3100 0.1445 0.9397
vn -0.5836 0.5926 0.5552
vn -0.8050 0.2091 0.5552
vn 0.3989 0.6909 -0.6029
vn 0.1252 0.2169 -0.9681
vn 0.3989 0.6909 0.6029
vn 0.1252 0.2169 0.9681
vn -0.2662 0.9639 -0.0000
vn 0.2662 0.9639 -0.0000
vn 0.9679 0.2514 -0.0000
vn 0.7017 0.7125 -0.0000
vn 0.7978 -0.0000 -0.6029
vn 0.2504 -0.0000 -0.9681
vn 0.7978 -0.0000 0.6029
vn 0.2504 -0.0000 0.9681
vn 0.7017 -0.7125 -0.0000
vn 0.9679 -0.2514 -0.0000
vn 0.3989 -0.6909 -0.6029
vn 0.1252 -0.2169 -0.9681
vn 0.3989 -0.6909 0.6029
vn 0.1252 -0.2169 0.9681
vn -0.2662 -0.9639 -0.0000
vn 0.2662 -0.9639 -0.0000
vn -0.3989 -0.6909 -0.6029
vn -0.1252 -0.2169 -0.9681
vn -0.3989 -0.6909 0.6029
vn -0.1252 -0.2169 0.9681
vn -0.9679 -0.2514 -0.0000
vn -0.7017 -0.7125 -0.0000
vn -0.7978 -0.0000 -0.6029
vn -0.2504 -0.0000 -0.9681
vn -0.7978 -0.0000 0.6029
vn -0.2504 -0.0000 0.9681
vn -0.7017 0.7125 -0.0000
vn -0.9679 0.2514 -0.0000
vn -0.3989 0.6909 -0.6029
vn -0.1252 0.2169 -0.9681
vn -0.3989 0.6909 0.6029
vn -0.1252 0.2169 0.9681
vn -0.0000 -0.0000 -1.0000
vn 0.5000 0.8660 -0.0000
vn -0.5000 0.8660 -0.0000
vn 0.0001 -0.0000 1.0000
vn 1.0000 -0.0000 -0.0000
vn 0.5000 -0.8660 -0.0000
vn -0.5000 -0.8660 -0.0000
vn -1.0000 -0.0000 -0.0000
vn -0.0001 -0.0000 1.0000
vn -0.0299 0.3407 -0.9397
vn -0.3048 0.8305 -0.4663
vn 0.3048 0.8305 -0.4663
vn 0.0299 0.3407 0.9397
vn 0.3048 0.8305 0.4663
vn -0.3048 0.8305 0.4663
vn 0.2801 0.1963 -0.9397
vn 0.5668 0.6792 -0.4663
vn 0.8716 0.1513 -0.4663
vn 0.3100 0.1445 0.9397
vn 0.8716 0.1513 0.4663
vn 0.5668 0.6792 0.4663
vn 0.3100 -0.1445 -0.9397
vn 0.8716 -0.1513 -0.4663
vn 0.5668 -0.6792 -0.4663
vn 0.2801 -0.1963 0.9397
vn 0.5668 -0.6792 0.4663
vn 0.8716 -0.1513 0.4663
vn 0.0299 -0.3407 -0.9397
vn 0.3048 -0.8305 -0.4663
vn -0.3048 -0.8305 -0.4663
vn -0.0299 -0.3407 0.9397
vn -0.3048 -0.8305 0.4663
vn 0.3048 -0.8305 0.4663
vn -0.2801 -0.1963 -0.9397
vn -0.5668 -0.6792 -0.4663
vn -0.8716 -0.1513 -0.4663
vn -0.3100 -0.1445 0.9397
vn -0.8716 -0.1513 0.4663
vn -0.5668 -0.6792 0.4663
vn -0.3100 0.1445 -0.9397
vn -0.8716 0.1513 -0.4663
vn -0.5668 0.6792 -0.4663
vn -0.2801 0.1963 0.9397
vn -0.5668 0.6792 0.4663
vn -0.8716 0.1513 0.4663
vt 0.814394 0.630027
vt 0.822638 0.704333
vt 0.814394 0.704333
vt 0.822638 0.630027
vt 0.830770 0.704333
vt 0.830770 0.630027
vt 0.838479 0.704333
vt 0.838479 0.630027
vt 0.845467 0.704333
vt 0.726959 0.630027
vt 0.733334 0.704333
vt 0.726959 0.704333
vt 0.733334 0.630027
vt 0.740608 0.704333
vt 0.740608 0.630027
vt 0.748500 0.704333
vt 0.748500 0.630027
vt 0.756707 0.704333
vt 0.756707 0.630027
vt 0.764914 0.704333
vt 0.764914 0.630027
vt 0.772806 0.704333
vt 0.772806 0.630027
vt 0.780079 0.704333
vt 0.780079 0.630027
vt 0.786454 0.704333
vt 0.786454 0.704333
vt 0.793443 0.778639
vt 0.786454 0.778639
vt 0.793443 0.704333
vt 0.801151 0.778639
vt 0.801151 0.704333
vt 0.809283 0.778639
vt 0.809283 0.704333
vt 0.817527 0.778639
vt 0.817527 0.704333
vt 0.825565 0.778639
vt 0.825565 0.704333
vt 0.833089 0.778639
vt 0.833089 0.704333
vt 0.839809 0.778639
vt 0.839809 0.704333
vt 0.845467 0.778639
vt 0.733334 0.778639
vt 0.726959 0.778639
vt 0.740608 0.778639
vt 0.748500 0.778639
vt 0.756707 0.778639
vt 0.764914 0.778639
vt 0.772806 0.778639
vt 0.780079 0.778639
vt 0.786454 0.778639
vt 0.786454 0.630027
vt 0.792113 0.704333
vt 0.792113 0.630027
vt 0.798833 0.704333
vt 0.805928 0.568329
vt 0.788657 0.625262
vt 0.731724 0.607992
vt 0.798833 0.630027
vt 0.806356 0.704333
vt 0.806356 0.630027
vt 0.242888 0.521224
vt 0.242888 0.540839
vt 0.225713 0.533310
vt 0.242888 0.546293
vt 0.260063 0.533310
vt 0.267177 0.539586
vt 0.218599 0.539586
vt 0.728663 0.521224
vt 0.728663 0.540839
vt 0.711489 0.533310
vt 0.728663 0.546293
vt 0.745838 0.533310
vt 0.752952 0.539586
vt 0.704375 0.539586
vt 0.028046 0.397186
vt 0.011060 0.406993
vt 0.008993 0.388354
vt 0.006336 0.409720
vt 0.026168 0.418102
vt 0.024289 0.427401
vt 0.000000 0.385332
vt 0.943505 0.397186
vt 0.960492 0.406993
vt 0.945384 0.418102
vt 0.965216 0.409720
vt 0.962559 0.388354
vt 0.971551 0.385332
vt 0.947263 0.427401
vt 0.028046 0.149108
vt 0.011060 0.139301
vt 0.026168 0.128191
vt 0.006336 0.136573
vt 0.008993 0.157939
vt 0.000000 0.160962
vt 0.024289 0.118892
vt 0.943505 0.149108
vt 0.960492 0.139301
vt 0.962559 0.157939
vt 0.965216 0.136573
vt 0.945384 0.128191
vt 0.947263 0.118892
vt 0.971551 0.160962
vt 0.242888 0.025069
vt 0.242888 0.005455
vt 0.260063 0.012984
vt 0.242888 0.000000
vt 0.225713 0.012984
vt 0.218599 0.006707
vt 0.267177 0.006707
vt 0.728663 0.025069
vt 0.728663 0.005455
vt 0.745838 0.012984
vt 0.728663 0.000000
vt 0.711489 0.012984
vt 0.704375 0.006707
vt 0.752952 0.006707
vt 0.457729 0.149108
vt 0.474716 0.139301
vt 0.476783 0.157939
vt 0.479440 0.136573
vt 0.459608 0.128191
vt 0.461487 0.118892
vt 0.485776 0.160962
vt 0.513822 0.149108
vt 0.496835 0.139301
vt 0.511943 0.128191
vt 0.492111 0.136573
vt 0.494768 0.157939
vt 0.485776 0.160962
vt 0.510064 0.118892
vt 0.457729 0.397186
vt 0.474716 0.406993
vt 0.459608 0.418102
vt 0.479440 0.409720
vt 0.476783 0.388354
vt 0.485776 0.385332
vt 0.461487 0.427401
vt 0.513822 0.397186
vt 0.496835 0.406993
vt 0.494768 0.388354
vt 0.492111 0.409720
vt 0.511943 0.418102
vt 0.510064 0.427401
vt 0.485776 0.385332
vt 0.000000 0.821526
vt 0.181740 0.798287
vt 0.181740 0.821526
vt 0.000000 0.798287
vt 0.181740 0.773342
vt 0.726959 0.795052
vt 0.545219 0.819440
vt 0.545219 0.795052
vt 0.181740 0.546293
vt 0.000000 0.566348
vt 0.000000 0.546293
vt 0.363480 0.979945
vt 0.181740 1.000000
vt 0.181740 0.979945
vt 0.726959 0.546293
vt 0.545220 0.570682
vt 0.545220 0.546293
vt 0.363480 0.724767
vt 0.181740 0.748007
vt 0.181740 0.724767
vt 0.363480 0.748007
vt 0.181740 0.772951
vt 0.545219 0.812733
vt 0.363480 0.837121
vt 0.363480 0.812733
vt 0.545219 0.837121
vt 0.363480 0.854802
vt 0.545219 0.546293
vt 0.363480 0.563975
vt 0.363480 0.546293
vt 0.545219 0.563975
vt 0.363480 0.588363
vt 0.000000 0.773342
vt 0.181740 0.566348
vt -0.000000 1.000000
vt 0.181740 1.000000
vt 0.767531 0.257047
vt 0.763643 0.249774
vt 0.687402 0.281354
vt 0.689796 0.289246
vt 0.726959 0.570682
vt 0.363480 0.772951
vt 0.363480 0.546293
vt 0.545219 0.588363
vt 0.845467 0.630027
vt 0.786454 0.630027
vt 0.845467 0.704333
vt 0.728568 0.600372
vt 0.726959 0.592284
vt 0.726959 0.584037
vt 0.728568 0.575948
vt 0.731724 0.568329
vt 0.736306 0.561472
vt 0.742138 0.555640
vt 0.748995 0.551058
vt 0.756614 0.547902
vt 0.764703 0.546293
vt 0.772950 0.546293
vt 0.781038 0.547902
vt 0.788657 0.551058
vt 0.795515 0.555640
vt 0.801346 0.561472
vt 0.809084 0.575948
vt 0.810693 0.584037
vt 0.810693 0.592284
vt 0.809084 0.600372
vt 0.805928 0.607992
vt 0.801346 0.614849
vt 0.795515 0.620680
vt 0.781038 0.628418
vt 0.772950 0.630027
vt 0.764703 0.630027
vt 0.756614 0.628418
vt 0.748995 0.625262
vt 0.742138 0.620680
vt 0.736306 0.614849
vt 0.726959 0.819440
vt 0.363480 1.000000
vt 0.545219 0.854802
vt 0.698916 0.243399
vt 0.693684 0.249774
vt 0.728663 0.315216
vt 0.736871 0.314408
vt 0.744763 0.312014
vt 0.705291 0.238167
vt 0.712564 0.234280
vt 0.752036 0.308126
vt 0.758411 0.302894
vt 0.720456 0.231886
vt 0.763643 0.296519
vt 0.728663 0.231077
vt 0.736871 0.231886
vt 0.767531 0.289246
vt 0.769925 0.281354
vt 0.744763 0.234280
vt 0.752036 0.238167
vt 0.770733 0.273147
vt 0.769925 0.264939
vt 0.758411 0.243399
vt 0.720456 0.314408
vt 0.689796 0.257047
vt 0.687402 0.264939
vt 0.712564 0.312014
vt 0.705291 0.308126
vt 0.686594 0.273147
vt 0.698916 0.302894
vt 0.693684 0.296519
vt 0.181740 0.546293
s 0
f 2/1/1 118/2/1 117/3/1
f 6/4/2 119/5/2 118/2/2
f 8/6/3 120/7/3 119/5/3
f 11/8/4 121/9/4 120/7/4
f 14/10/5 122/11/5 121/12/5
f 17/13/6 123/14/6 122/11/6
f 21/15/7 124/16/7 123/14/7
f 23/17/8 125/18/8 124/16/8
f 26/19/9 126/20/9 125/18/9
f 29/21/10 127/22/10 126/20/10
f 32/23/11 128/24/11 127/22/11
f 36/25/12 129/26/12 128/24/12
f 38/27/13 130/28/13 129/29/13
f 41/30/14 131/31/14 130/28/14
f 44/32/15 132/33/15 131/31/15
f 47/34/16 133/35/16 132/33/16
f 50/36/17 134/37/17 133/35/17
f 53/38/18 135/39/18 134/37/18
f 57/40/19 136/41/19 135/39/19
f 60/42/20 137/43/20 136/41/20
f 63/12/21 138/44/21 137/45/21
f 66/11/22 139/46/22 138/44/22
f 68/14/23 140/47/23 139/46/23
f 72/16/24 141/48/24 140/47/24
f 75/18/25 142/49/25 141/48/25
f 78/20/26 143/50/26 142/49/26
f 80/22/27 144/51/27 143/50/27
f 84/24/28 145/52/28 144/51/28
f 87/53/29 146/54/29 145/27/29
f 89/55/30 147/56/30 146/54/30
f 47/57/31 23/58/31 96/59/31
f 92/60/32 148/61/32 147/56/32
f 96/62/33 117/3/33 148/61/33
f 1/63/34 7/64/34 10/65/34
f 9/66/35 5/67/35 3/68/35
f 10/65/36 9/66/36 4/69/36
f 12/70/37 18/71/37 20/72/37
f 19/73/38 16/74/38 13/75/38
f 20/72/39 19/73/39 15/76/39
f 22/77/40 28/78/40 31/79/40
f 30/80/41 27/81/41 24/82/41
f 31/79/42 30/80/42 25/83/42
f 33/84/43 39/85/43 42/86/43
f 40/87/44 37/88/44 34/89/44
f 42/86/45 40/87/45 35/90/45
f 43/91/46 49/92/46 52/93/46
f 51/94/47 48/95/47 45/96/47
f 52/93/48 51/94/48 46/97/48
f 54/98/49 59/99/49 62/100/49
f 61/101/50 58/102/50 55/103/50
f 62/100/51 61/101/51 56/104/51
f 64/105/52 70/106/52 73/107/52
f 71/108/53 69/109/53 65/110/53
f 73/107/54 71/108/54 67/111/54
f 74/112/55 81/113/55 83/114/55
f 82/115/56 79/116/56 76/117/56
f 83/114/57 82/115/57 77/118/57
f 85/119/58 91/120/58 94/121/58
f 93/122/59 90/123/59 86/124/59
f 94/121/60 93/122/60 88/125/60
f 95/126/61 100/127/61 102/128/61
f 101/129/62 99/130/62 97/131/62
f 102/128/63 101/129/63 98/132/63
f 103/133/64 107/134/64 109/135/64
f 108/136/65 106/137/65 104/138/65
f 109/135/66 108/136/66 105/139/66
f 110/140/67 114/141/67 116/142/67
f 115/143/68 113/144/68 111/145/68
f 116/142/69 115/143/69 112/146/69
f 24/82/70 10/65/70 4/69/70
f 10/65/71 22/77/71 1/63/71
f 35/90/72 16/74/72 42/86/72
f 16/74/73 33/84/73 42/86/73
f 15/147/74 9/148/74 3/149/74
f 19/150/75 4/151/75 9/148/75
f 25/152/76 40/153/76 34/154/76
f 30/155/77 35/156/77 40/157/77
f 45/96/78 31/79/78 25/83/78
f 48/95/79 22/77/79 31/79/79
f 34/89/80 62/100/80 56/104/80
f 37/88/81 54/98/81 62/100/81
f 46/158/82 61/159/82 55/160/82
f 51/161/83 56/162/83 61/163/83
f 65/110/84 52/93/84 46/97/84
f 69/109/85 43/91/85 52/93/85
f 55/103/86 83/114/86 77/118/86
f 83/114/87 54/98/87 74/112/87
f 67/164/88 82/165/88 76/166/88
f 71/167/89 77/168/89 82/165/89
f 86/124/90 73/107/90 67/111/90
f 73/107/91 85/119/91 64/105/91
f 98/132/92 79/116/92 102/128/92
f 79/116/93 95/126/93 102/128/93
f 88/169/94 101/170/94 97/171/94
f 93/172/95 98/173/95 101/170/95
f 104/138/96 94/121/96 88/125/96
f 106/137/97 85/119/97 94/121/97
f 97/131/98 116/142/98 112/146/98
f 99/130/99 110/140/99 116/142/99
f 105/174/100 115/175/100 111/176/100
f 108/177/101 112/178/101 115/175/101
f 3/68/102 109/135/102 105/139/102
f 5/67/103 103/133/103 109/135/103
f 111/145/104 20/72/104 15/76/104
f 20/72/105 110/140/105 12/70/105
f 1/63/106 43/91/106 85/119/106
f 13/179/107 24/180/107 4/151/107
f 111/181/108 3/149/108 105/182/108
f 54/98/31 127/183/31 128/184/31
f 12/70/109 142/185/109 143/186/109
f 34/154/110 45/187/110 25/152/110
f 55/160/111 65/188/111 46/158/111
f 76/166/112 86/189/112 67/164/112
f 97/171/113 104/190/113 88/169/113
f 2/1/1 6/4/1 118/2/1
f 6/4/2 8/6/2 119/5/2
f 8/6/3 11/8/3 120/7/3
f 11/8/4 14/191/4 121/9/4
f 14/10/5 17/13/5 122/11/5
f 17/13/6 21/15/6 123/14/6
f 21/15/7 23/17/7 124/16/7
f 23/17/8 26/19/8 125/18/8
f 26/19/9 29/21/9 126/20/9
f 29/21/10 32/23/10 127/22/10
f 32/23/11 36/25/11 128/24/11
f 36/25/12 38/192/12 129/26/12
f 38/27/13 41/30/13 130/28/13
f 41/30/14 44/32/14 131/31/14
f 44/32/15 47/34/15 132/33/15
f 47/34/16 50/36/16 133/35/16
f 50/36/17 53/38/17 134/37/17
f 53/38/18 57/40/18 135/39/18
f 57/40/19 60/42/19 136/41/19
f 60/42/20 63/193/20 137/43/20
f 63/12/21 66/11/21 138/44/21
f 66/11/22 68/14/22 139/46/22
f 68/14/23 72/16/23 140/47/23
f 72/16/24 75/18/24 141/48/24
f 75/18/25 78/20/25 142/49/25
f 78/20/26 80/22/26 143/50/26
f 80/22/27 84/24/27 144/51/27
f 84/24/28 87/26/28 145/52/28
f 87/53/29 89/55/29 146/54/29
f 89/55/30 92/60/30 147/56/30
f 96/59/31 92/194/31 89/195/31
f 89/195/31 87/196/31 84/197/31
f 84/197/114 80/198/114 78/199/114
f 78/199/31 75/200/31 72/201/31
f 72/201/114 68/202/114 66/203/114
f 66/203/31 63/204/31 60/205/31
f 60/205/31 57/206/31 53/207/31
f 53/207/31 50/208/31 47/57/31
f 47/57/31 44/209/31 41/210/31
f 41/210/31 38/211/31 36/212/31
f 36/212/109 32/213/109 29/214/109
f 29/214/31 26/215/31 23/58/31
f 23/58/109 21/216/109 17/217/109
f 17/217/31 14/218/31 11/219/31
f 11/219/31 8/220/31 6/221/31
f 6/221/31 2/222/31 96/59/31
f 96/59/31 89/195/31 84/197/31
f 84/197/31 78/199/31 72/201/31
f 72/201/31 66/203/31 60/205/31
f 60/205/31 53/207/31 47/57/31
f 47/57/31 41/210/31 36/212/31
f 36/212/31 29/214/31 23/58/31
f 23/58/31 17/217/31 11/219/31
f 11/219/31 6/221/31 96/59/31
f 96/59/31 84/197/31 72/201/31
f 72/201/31 60/205/31 47/57/31
f 47/57/31 36/212/31 23/58/31
f 23/58/31 11/219/31 96/59/31
f 96/59/31 72/201/31 47/57/31
f 92/60/32 96/62/32 148/61/32
f 96/62/33 2/1/33 117/3/33
f 1/63/115 5/67/115 7/64/115
f 9/66/116 7/64/116 5/67/116
f 10/65/117 7/64/117 9/66/117
f 12/70/118 16/74/118 18/71/118
f 19/73/119 18/71/119 16/74/119
f 20/72/120 18/71/120 19/73/120
f 22/77/121 27/81/121 28/78/121
f 30/80/122 28/78/122 27/81/122
f 31/79/123 28/78/123 30/80/123
f 33/84/124 37/88/124 39/85/124
f 40/87/125 39/85/125 37/88/125
f 42/86/126 39/85/126 40/87/126
f 43/91/127 48/95/127 49/92/127
f 51/94/128 49/92/128 48/95/128
f 52/93/129 49/92/129 51/94/129
f 54/98/130 58/102/130 59/99/130
f 61/101/131 59/99/131 58/102/131
f 62/100/132 59/99/132 61/101/132
f 64/105/133 69/109/133 70/106/133
f 71/108/134 70/106/134 69/109/134
f 73/107/135 70/106/135 71/108/135
f 74/112/136 79/116/136 81/113/136
f 82/115/137 81/113/137 79/116/137
f 83/114/138 81/113/138 82/115/138
f 85/119/139 90/123/139 91/120/139
f 93/122/140 91/120/140 90/123/140
f 94/121/141 91/120/141 93/122/141
f 95/126/142 99/130/142 100/127/142
f 101/129/143 100/127/143 99/130/143
f 102/128/144 100/127/144 101/129/144
f 103/133/145 106/137/145 107/134/145
f 108/136/146 107/134/146 106/137/146
f 109/135/147 107/134/147 108/136/147
f 110/140/148 113/144/148 114/141/148
f 115/143/149 114/141/149 113/144/149
f 116/142/150 114/141/150 115/143/150
f 24/82/70 27/81/70 10/65/70
f 10/65/71 27/81/71 22/77/71
f 35/90/72 13/75/72 16/74/72
f 16/74/73 12/70/73 33/84/73
f 15/147/74 19/150/74 9/148/74
f 19/150/75 13/179/75 4/151/75
f 25/152/76 30/223/76 40/153/76
f 30/155/77 24/180/77 35/156/77
f 45/96/78 48/95/78 31/79/78
f 48/95/79 43/91/79 22/77/79
f 34/89/80 37/88/80 62/100/80
f 37/88/81 33/84/81 54/98/81
f 46/158/82 51/224/82 61/159/82
f 51/161/83 45/187/83 56/162/83
f 65/110/84 69/109/84 52/93/84
f 69/109/85 64/105/85 43/91/85
f 55/103/86 58/102/86 83/114/86
f 83/114/87 58/102/87 54/98/87
f 67/164/88 71/167/88 82/165/88
f 71/167/89 65/188/89 77/168/89
f 86/124/90 90/123/90 73/107/90
f 73/107/91 90/123/91 85/119/91
f 98/132/92 76/117/92 79/116/92
f 79/116/93 74/112/93 95/126/93
f 88/169/94 93/172/94 101/170/94
f 93/172/95 86/225/95 98/173/95
f 104/138/96 106/137/96 94/121/96
f 106/137/97 103/133/97 85/119/97
f 97/131/98 99/130/98 116/142/98
f 99/130/99 95/126/99 110/140/99
f 105/174/100 108/177/100 115/175/100
f 108/177/101 104/190/101 112/178/101
f 3/68/102 5/67/102 109/135/102
f 5/67/103 1/63/103 103/133/103
f 111/145/104 113/144/104 20/72/104
f 20/72/105 113/144/105 110/140/105
f 85/119/106 103/133/106 1/63/106
f 1/63/106 22/77/106 43/91/106
f 43/91/106 64/105/106 85/119/106
f 13/179/107 35/156/107 24/180/107
f 111/181/108 15/147/108 3/149/108
f 137/226/31 138/227/31 95/126/31
f 95/126/31 74/112/31 54/98/31
f 54/98/31 33/84/31 12/70/31
f 12/70/31 117/228/31 118/229/31
f 12/70/31 118/229/31 119/230/31
f 136/231/31 137/226/31 95/126/31
f 135/232/31 136/231/31 95/126/31
f 12/70/31 119/230/31 120/233/31
f 12/70/31 120/233/31 121/234/31
f 135/232/31 95/126/31 54/98/31
f 134/235/31 135/232/31 54/98/31
f 54/98/31 12/70/31 121/234/31
f 54/98/31 121/234/31 122/236/31
f 133/237/31 134/235/31 54/98/31
f 132/238/31 133/237/31 54/98/31
f 54/98/31 122/236/31 123/239/31
f 54/98/31 123/239/31 124/240/31
f 131/241/31 132/238/31 54/98/31
f 130/242/31 131/241/31 54/98/31
f 54/98/31 124/240/31 125/243/31
f 54/98/31 125/243/31 126/244/31
f 129/245/31 130/242/31 54/98/31
f 128/184/31 129/245/31 54/98/31
f 54/98/31 126/244/31 127/183/31
f 148/246/31 117/228/31 12/70/31
f 12/70/31 110/140/31 95/126/31
f 95/126/31 138/227/31 139/247/31
f 95/126/31 139/247/31 140/248/31
f 147/249/31 148/246/31 12/70/31
f 146/250/31 147/249/31 12/70/31
f 95/126/31 140/248/31 141/251/31
f 95/126/31 141/251/31 142/185/31
f 145/252/31 146/250/31 12/70/31
f 144/253/31 145/252/31 12/70/31
f 12/70/31 95/126/31 142/185/31
f 143/186/114 144/253/114 12/70/114
f 34/154/110 56/162/110 45/187/110
f 55/160/111 77/168/111 65/188/111
f 76/166/112 98/254/112 86/189/112
f 97/171/113 112/178/113 104/190/113
